# 3ds Max Wavefront OBJ Exporter v0.97b - (c)2007 guruware
# File Created: 19.08.2017 18:32:27

#
# object Plane001
#

v  -13.4545192719 -22.4640712738 0.0000000000
v  -13.4545192719 -23.0310001373 0.0000000000
v  -12.4466457367 -23.0310001373 0.0000000000
v  -12.4466457367 -22.4640712738 0.0000000000
v  -11.4387722015 -23.0310001373 0.0000000000
v  -11.4387722015 -22.4640712738 0.0000000000
v  -10.4308977127 -23.0310001373 0.0000000000
v  -10.4308977127 -22.4640712738 0.0000000000
v  -9.4230232239 -23.0310001373 0.0000000000
v  -9.4230232239 -22.4640712738 0.0000000000
v  -8.4151496887 -23.0310001373 0.0000000000
v  -8.4151496887 -22.4640712738 0.0000000000
v  -7.4072756767 -23.0310001373 0.0000000000
v  -7.4072756767 -22.4640712738 0.0000000000
v  -6.3994016647 -23.0310001373 0.0000000000
v  -6.3994016647 -22.4640712738 0.0000000000
v  -5.3915276527 -23.0310001373 0.0000000000
v  -5.3915276527 -22.4640712738 0.0000000000
v  -4.3836536407 -23.0310001373 0.0000000000
v  -4.3836536407 -22.4640712738 0.0000000000
v  -3.3757796288 -23.0310001373 0.0000000000
v  -3.3757796288 -22.4640712738 0.0000000000
v  -13.4545192719 -21.8971405029 0.0000000000
v  -12.4466457367 -21.8971405029 0.0000000000
v  -11.4387722015 -21.8971405029 0.0000000000
v  -10.4308977127 -21.8971405029 0.0000000000
v  -9.4230232239 -21.8971405029 0.0000000000
v  -8.4151496887 -21.8971405029 0.0000000000
v  -7.4072756767 -21.8971405029 0.0000000000
v  -6.3994016647 -21.8971405029 0.0000000000
v  -5.3915276527 -21.8971405029 0.0000000000
v  -4.3836536407 -21.8971405029 0.0000000000
v  -3.3757796288 -21.8971405029 0.0000000000
v  -13.4545192719 -21.3302116394 0.0000000000
v  -12.4466457367 -21.3302116394 0.0000000000
v  -11.4387722015 -21.3302116394 0.0000000000
v  -10.4308977127 -21.3302116394 0.0000000000
v  -9.4230232239 -21.3302116394 0.0000000000
v  -8.4151496887 -21.3302116394 0.0000000000
v  -7.4072756767 -21.3302116394 0.0000000000
v  -6.3994016647 -21.3302116394 0.0000000000
v  -5.3915276527 -21.3302116394 0.0000000000
v  -4.3836536407 -21.3302116394 0.0000000000
v  -3.3757796288 -21.3302116394 0.0000000000
v  -13.4545192719 -20.7632827759 0.0000000000
v  -12.4466457367 -20.7632827759 0.0000000000
v  -11.4387722015 -20.7632827759 0.0000000000
v  -10.4308977127 -20.7632827759 0.0000000000
v  -9.4230232239 -20.7632827759 0.0000000000
v  -8.4151496887 -20.7632827759 0.0000000000
v  -7.4072756767 -20.7632827759 0.0000000000
v  -6.3994016647 -20.7632827759 0.0000000000
v  -5.3915276527 -20.7632827759 0.0000000000
v  -4.3836536407 -20.7632827759 0.0000000000
v  -3.3757796288 -20.7632827759 0.0000000000
v  -13.4545192719 -20.1963539124 0.0000000000
v  -12.4466457367 -20.1963539124 0.0000000000
v  -11.4387722015 -20.1963539124 0.0000000000
v  -10.4308977127 -20.1963539124 0.0000000000
v  -9.4230232239 -20.1963539124 0.0000000000
v  -8.4151496887 -20.1963539124 0.0000000000
v  -7.4072756767 -20.1963539124 0.0000000000
v  -6.3994016647 -20.1963539124 0.0000000000
v  -5.3915276527 -20.1963539124 0.0000000000
v  -4.3836536407 -20.1963539124 0.0000000000
v  -3.3757796288 -20.1963539124 0.0000000000
v  -13.4545192719 -19.6294250488 0.0000000000
v  -12.4466457367 -19.6294250488 0.0000000000
v  -11.4387722015 -19.6294250488 0.0000000000
v  -10.4308977127 -19.6294250488 0.0000000000
v  -9.4230232239 -19.6294250488 0.0000000000
v  -8.4151496887 -19.6294250488 0.0000000000
v  -7.4072756767 -19.6294250488 0.0000000000
v  -6.3994016647 -19.6294250488 0.0000000000
v  -5.3915276527 -19.6294250488 0.0000000000
v  -4.3836536407 -19.6294250488 0.0000000000
v  -3.3757796288 -19.6294250488 0.0000000000
v  -13.4545192719 -19.0624961853 0.0000000000
v  -12.4466457367 -19.0624961853 0.0000000000
v  -11.4387722015 -19.0624961853 0.0000000000
v  -10.4308977127 -19.0624961853 0.0000000000
v  -9.4230232239 -19.0624961853 0.0000000000
v  -8.4151496887 -19.0624961853 0.0000000000
v  -7.4072756767 -19.0624961853 0.0000000000
v  -6.3994016647 -19.0624961853 0.0000000000
v  -5.3915276527 -19.0624961853 0.0000000000
v  -4.3836536407 -19.0624961853 0.0000000000
v  -3.3757796288 -19.0624961853 0.0000000000
v  -13.4545192719 -18.4955673218 0.0000000000
v  -12.4466457367 -18.4955673218 0.0000000000
v  -11.4387722015 -18.4955673218 0.0000000000
v  -10.4308977127 -18.4955673218 0.0000000000
v  -9.4230232239 -18.4955673218 0.0000000000
v  -8.4151496887 -18.4955673218 0.0000000000
v  -7.4072756767 -18.4955673218 0.0000000000
v  -6.3994016647 -18.4955673218 0.0000000000
v  -5.3915276527 -18.4955673218 0.0000000000
v  -4.3836536407 -18.4955673218 0.0000000000
v  -3.3757796288 -18.4955673218 0.0000000000
v  -13.4545192719 -17.9286384583 0.0000000000
v  -12.4466457367 -17.9286384583 0.0000000000
v  -11.4387722015 -17.9286384583 0.0000000000
v  -10.4308977127 -17.9286384583 0.0000000000
v  -9.4230232239 -17.9286384583 0.0000000000
v  -8.4151496887 -17.9286384583 0.0000000000
v  -7.4072756767 -17.9286384583 0.0000000000
v  -6.3994016647 -17.9286384583 0.0000000000
v  -5.3915276527 -17.9286384583 0.0000000000
v  -4.3836536407 -17.9286384583 0.0000000000
v  -3.3757796288 -17.9286384583 0.0000000000
v  -13.4545192719 -17.3617076874 0.0000000000
v  -12.4466457367 -17.3617076874 0.0000000000
v  -11.4387722015 -17.3617076874 0.0000000000
v  -10.4308977127 -17.3617076874 0.0000000000
v  -9.4230232239 -17.3617076874 0.0000000000
v  -8.4151496887 -17.3617076874 0.0000000000
v  -7.4072756767 -17.3617076874 0.0000000000
v  -6.3994016647 -17.3617076874 0.0000000000
v  -5.3915276527 -17.3617076874 0.0000000000
v  -4.3836536407 -17.3617076874 0.0000000000
v  -3.3757796288 -17.3617076874 0.0000000000
# 121 vertices

vn 0.0000000000 0.0000000000 1.0000000000
# 1 vertex normals

vt 0.0000000000 0.5669291615 0.0000000000
vt 0.0000000000 0.0000000000 0.0000000000
vt 1.0078740120 0.0000000000 0.0000000000
vt 1.0078740120 0.5669291615 0.0000000000
vt 2.0157480240 0.0000000000 0.0000000000
vt 2.0157480240 0.5669291615 0.0000000000
vt 3.0236222744 0.0000000000 0.0000000000
vt 3.0236222744 0.5669291615 0.0000000000
vt 4.0314960480 0.0000000000 0.0000000000
vt 4.0314960480 0.5669291615 0.0000000000
vt 5.0393700600 0.0000000000 0.0000000000
vt 5.0393700600 0.5669291615 0.0000000000
vt 6.0472445488 0.0000000000 0.0000000000
vt 6.0472445488 0.5669291615 0.0000000000
vt 7.0551185608 0.0000000000 0.0000000000
vt 7.0551185608 0.5669291615 0.0000000000
vt 8.0629930496 0.0000000000 0.0000000000
vt 8.0629930496 0.5669291615 0.0000000000
vt 9.0708675385 0.0000000000 0.0000000000
vt 9.0708675385 0.5669291615 0.0000000000
vt 10.0787410736 0.0000000000 0.0000000000
vt 10.0787410736 0.5669291615 0.0000000000
vt 0.0000000000 1.1338583231 0.0000000000
vt 1.0078740120 1.1338583231 0.0000000000
vt 2.0157480240 1.1338583231 0.0000000000
vt 3.0236222744 1.1338583231 0.0000000000
vt 4.0314960480 1.1338583231 0.0000000000
vt 5.0393700600 1.1338583231 0.0000000000
vt 6.0472445488 1.1338583231 0.0000000000
vt 7.0551185608 1.1338583231 0.0000000000
vt 8.0629930496 1.1338583231 0.0000000000
vt 9.0708675385 1.1338583231 0.0000000000
vt 10.0787410736 1.1338583231 0.0000000000
vt 0.0000000000 1.7007875443 0.0000000000
vt 1.0078740120 1.7007875443 0.0000000000
vt 2.0157480240 1.7007875443 0.0000000000
vt 3.0236222744 1.7007875443 0.0000000000
vt 4.0314960480 1.7007875443 0.0000000000
vt 5.0393700600 1.7007875443 0.0000000000
vt 6.0472445488 1.7007875443 0.0000000000
vt 7.0551185608 1.7007875443 0.0000000000
vt 8.0629930496 1.7007875443 0.0000000000
vt 9.0708675385 1.7007875443 0.0000000000
vt 10.0787410736 1.7007875443 0.0000000000
vt 0.0000000000 2.2677166462 0.0000000000
vt 1.0078740120 2.2677166462 0.0000000000
vt 2.0157480240 2.2677166462 0.0000000000
vt 3.0236222744 2.2677166462 0.0000000000
vt 4.0314960480 2.2677166462 0.0000000000
vt 5.0393700600 2.2677166462 0.0000000000
vt 6.0472445488 2.2677166462 0.0000000000
vt 7.0551185608 2.2677166462 0.0000000000
vt 8.0629930496 2.2677166462 0.0000000000
vt 9.0708675385 2.2677166462 0.0000000000
vt 10.0787410736 2.2677166462 0.0000000000
vt 0.0000000000 2.8346457481 0.0000000000
vt 1.0078740120 2.8346457481 0.0000000000
vt 2.0157480240 2.8346457481 0.0000000000
vt 3.0236222744 2.8346457481 0.0000000000
vt 4.0314960480 2.8346457481 0.0000000000
vt 5.0393700600 2.8346457481 0.0000000000
vt 6.0472445488 2.8346457481 0.0000000000
vt 7.0551185608 2.8346457481 0.0000000000
vt 8.0629930496 2.8346457481 0.0000000000
vt 9.0708675385 2.8346457481 0.0000000000
vt 10.0787410736 2.8346457481 0.0000000000
vt 0.0000000000 3.4015750885 0.0000000000
vt 1.0078740120 3.4015750885 0.0000000000
vt 2.0157480240 3.4015750885 0.0000000000
vt 3.0236222744 3.4015750885 0.0000000000
vt 4.0314960480 3.4015750885 0.0000000000
vt 5.0393700600 3.4015750885 0.0000000000
vt 6.0472445488 3.4015750885 0.0000000000
vt 7.0551185608 3.4015750885 0.0000000000
vt 8.0629930496 3.4015750885 0.0000000000
vt 9.0708675385 3.4015750885 0.0000000000
vt 10.0787410736 3.4015750885 0.0000000000
vt 0.0000000000 3.9685044289 0.0000000000
vt 1.0078740120 3.9685044289 0.0000000000
vt 2.0157480240 3.9685044289 0.0000000000
vt 3.0236222744 3.9685044289 0.0000000000
vt 4.0314960480 3.9685044289 0.0000000000
vt 5.0393700600 3.9685044289 0.0000000000
vt 6.0472445488 3.9685044289 0.0000000000
vt 7.0551185608 3.9685044289 0.0000000000
vt 8.0629930496 3.9685044289 0.0000000000
vt 9.0708675385 3.9685044289 0.0000000000
vt 10.0787410736 3.9685044289 0.0000000000
vt 0.0000000000 4.5354337692 0.0000000000
vt 1.0078740120 4.5354337692 0.0000000000
vt 2.0157480240 4.5354337692 0.0000000000
vt 3.0236222744 4.5354337692 0.0000000000
vt 4.0314960480 4.5354337692 0.0000000000
vt 5.0393700600 4.5354337692 0.0000000000
vt 6.0472445488 4.5354337692 0.0000000000
vt 7.0551185608 4.5354337692 0.0000000000
vt 8.0629930496 4.5354337692 0.0000000000
vt 9.0708675385 4.5354337692 0.0000000000
vt 10.0787410736 4.5354337692 0.0000000000
vt 0.0000000000 5.1023631096 0.0000000000
vt 1.0078740120 5.1023631096 0.0000000000
vt 2.0157480240 5.1023631096 0.0000000000
vt 3.0236222744 5.1023631096 0.0000000000
vt 4.0314960480 5.1023631096 0.0000000000
vt 5.0393700600 5.1023631096 0.0000000000
vt 6.0472445488 5.1023631096 0.0000000000
vt 7.0551185608 5.1023631096 0.0000000000
vt 8.0629930496 5.1023631096 0.0000000000
vt 9.0708675385 5.1023631096 0.0000000000
vt 10.0787410736 5.1023631096 0.0000000000
vt 0.0000000000 5.6692919731 0.0000000000
vt 1.0078740120 5.6692919731 0.0000000000
vt 2.0157480240 5.6692919731 0.0000000000
vt 3.0236222744 5.6692919731 0.0000000000
vt 4.0314960480 5.6692919731 0.0000000000
vt 5.0393700600 5.6692919731 0.0000000000
vt 6.0472445488 5.6692919731 0.0000000000
vt 7.0551185608 5.6692919731 0.0000000000
vt 8.0629930496 5.6692919731 0.0000000000
vt 9.0708675385 5.6692919731 0.0000000000
vt 10.0787410736 5.6692919731 0.0000000000
# 121 texture coords

g Plane001
s 1
f 1/1/1 2/2/1 3/3/1 4/4/1 
f 4/4/1 3/3/1 5/5/1 6/6/1 
f 6/6/1 5/5/1 7/7/1 8/8/1 
f 8/8/1 7/7/1 9/9/1 10/10/1 
f 10/10/1 9/9/1 11/11/1 12/12/1 
f 12/12/1 11/11/1 13/13/1 14/14/1 
f 14/14/1 13/13/1 15/15/1 16/16/1 
f 16/16/1 15/15/1 17/17/1 18/18/1 
f 18/18/1 17/17/1 19/19/1 20/20/1 
f 20/20/1 19/19/1 21/21/1 22/22/1 
f 23/23/1 1/1/1 4/4/1 24/24/1 
f 24/24/1 4/4/1 6/6/1 25/25/1 
f 25/25/1 6/6/1 8/8/1 26/26/1 
f 26/26/1 8/8/1 10/10/1 27/27/1 
f 27/27/1 10/10/1 12/12/1 28/28/1 
f 28/28/1 12/12/1 14/14/1 29/29/1 
f 29/29/1 14/14/1 16/16/1 30/30/1 
f 30/30/1 16/16/1 18/18/1 31/31/1 
f 31/31/1 18/18/1 20/20/1 32/32/1 
f 32/32/1 20/20/1 22/22/1 33/33/1 
f 34/34/1 23/23/1 24/24/1 35/35/1 
f 35/35/1 24/24/1 25/25/1 36/36/1 
f 36/36/1 25/25/1 26/26/1 37/37/1 
f 37/37/1 26/26/1 27/27/1 38/38/1 
f 38/38/1 27/27/1 28/28/1 39/39/1 
f 39/39/1 28/28/1 29/29/1 40/40/1 
f 40/40/1 29/29/1 30/30/1 41/41/1 
f 41/41/1 30/30/1 31/31/1 42/42/1 
f 42/42/1 31/31/1 32/32/1 43/43/1 
f 43/43/1 32/32/1 33/33/1 44/44/1 
f 45/45/1 34/34/1 35/35/1 46/46/1 
f 46/46/1 35/35/1 36/36/1 47/47/1 
f 47/47/1 36/36/1 37/37/1 48/48/1 
f 48/48/1 37/37/1 38/38/1 49/49/1 
f 49/49/1 38/38/1 39/39/1 50/50/1 
f 50/50/1 39/39/1 40/40/1 51/51/1 
f 51/51/1 40/40/1 41/41/1 52/52/1 
f 52/52/1 41/41/1 42/42/1 53/53/1 
f 53/53/1 42/42/1 43/43/1 54/54/1 
f 54/54/1 43/43/1 44/44/1 55/55/1 
f 56/56/1 45/45/1 46/46/1 57/57/1 
f 57/57/1 46/46/1 47/47/1 58/58/1 
f 58/58/1 47/47/1 48/48/1 59/59/1 
f 59/59/1 48/48/1 49/49/1 60/60/1 
f 60/60/1 49/49/1 50/50/1 61/61/1 
f 61/61/1 50/50/1 51/51/1 62/62/1 
f 62/62/1 51/51/1 52/52/1 63/63/1 
f 63/63/1 52/52/1 53/53/1 64/64/1 
f 64/64/1 53/53/1 54/54/1 65/65/1 
f 65/65/1 54/54/1 55/55/1 66/66/1 
f 67/67/1 56/56/1 57/57/1 68/68/1 
f 68/68/1 57/57/1 58/58/1 69/69/1 
f 69/69/1 58/58/1 59/59/1 70/70/1 
f 70/70/1 59/59/1 60/60/1 71/71/1 
f 71/71/1 60/60/1 61/61/1 72/72/1 
f 72/72/1 61/61/1 62/62/1 73/73/1 
f 73/73/1 62/62/1 63/63/1 74/74/1 
f 74/74/1 63/63/1 64/64/1 75/75/1 
f 75/75/1 64/64/1 65/65/1 76/76/1 
f 76/76/1 65/65/1 66/66/1 77/77/1 
f 78/78/1 67/67/1 68/68/1 79/79/1 
f 79/79/1 68/68/1 69/69/1 80/80/1 
f 80/80/1 69/69/1 70/70/1 81/81/1 
f 81/81/1 70/70/1 71/71/1 82/82/1 
f 82/82/1 71/71/1 72/72/1 83/83/1 
f 83/83/1 72/72/1 73/73/1 84/84/1 
f 84/84/1 73/73/1 74/74/1 85/85/1 
f 85/85/1 74/74/1 75/75/1 86/86/1 
f 86/86/1 75/75/1 76/76/1 87/87/1 
f 87/87/1 76/76/1 77/77/1 88/88/1 
f 89/89/1 78/78/1 79/79/1 90/90/1 
f 90/90/1 79/79/1 80/80/1 91/91/1 
f 91/91/1 80/80/1 81/81/1 92/92/1 
f 92/92/1 81/81/1 82/82/1 93/93/1 
f 93/93/1 82/82/1 83/83/1 94/94/1 
f 94/94/1 83/83/1 84/84/1 95/95/1 
f 95/95/1 84/84/1 85/85/1 96/96/1 
f 96/96/1 85/85/1 86/86/1 97/97/1 
f 97/97/1 86/86/1 87/87/1 98/98/1 
f 98/98/1 87/87/1 88/88/1 99/99/1 
f 100/100/1 89/89/1 90/90/1 101/101/1 
f 101/101/1 90/90/1 91/91/1 102/102/1 
f 102/102/1 91/91/1 92/92/1 103/103/1 
f 103/103/1 92/92/1 93/93/1 104/104/1 
f 104/104/1 93/93/1 94/94/1 105/105/1 
f 105/105/1 94/94/1 95/95/1 106/106/1 
f 106/106/1 95/95/1 96/96/1 107/107/1 
f 107/107/1 96/96/1 97/97/1 108/108/1 
f 108/108/1 97/97/1 98/98/1 109/109/1 
f 109/109/1 98/98/1 99/99/1 110/110/1 
f 111/111/1 100/100/1 101/101/1 112/112/1 
f 112/112/1 101/101/1 102/102/1 113/113/1 
f 113/113/1 102/102/1 103/103/1 114/114/1 
f 114/114/1 103/103/1 104/104/1 115/115/1 
f 115/115/1 104/104/1 105/105/1 116/116/1 
f 116/116/1 105/105/1 106/106/1 117/117/1 
f 117/117/1 106/106/1 107/107/1 118/118/1 
f 118/118/1 107/107/1 108/108/1 119/119/1 
f 119/119/1 108/108/1 109/109/1 120/120/1 
f 120/120/1 109/109/1 110/110/1 121/121/1 
# 100 polygons

